# AST/ASF file generated using VICON BodyLanguage
# -----------------------------------------------
:version 1.10
:name VICON
:units
  mass 1.0
  length 0.45
  angle deg
:documentation
   .ast/.asf automatically generated from VICON data using
   VICON BodyBuilder and BodyLanguage model FoxedUp or BRILLIANT.MOD
:root
   order TX TY TZ RX RY RZ
   axis XYZ
   position 0 0 0  
   orientation 0 0 0 
:bonedata
  begin
     id 1 
     name lhipjoint
     direction 0.610259 -0.730986 0.305356 
     length 2.50941 
     axis 0 0 0  XYZ
  end
  begin
     id 2 
     name lfemur
     direction 0.34202 -0.939693 0  
     length 7.48822  
     axis 0 0 20  XYZ
    dof rx ry rz
    limits (-160.0 20.0)
           (-70.0 70.0)
           (-60.0 70.0)
  end
  begin
     id 3 
     name ltibia
     direction 0.34202 -0.939693 0   
     length 7.60141   
     axis 0 0 20   XYZ
    dof rx
    limits (-10.0 170.0)
  end
  begin
     id 4 
     name lfoot
     direction 0.0673488 -0.185039 0.980421   
     length 2.04049   
     axis -90 7.62852e-016 20   XYZ
    dof rx rz
    limits (-45.0 90.0)
           (-70.0 20.0)
  end
  begin
     id 5 
     name ltoes
     direction 1.5356e-011 -4.21729e-011 1   
     length 1.02897   
     axis -90 7.62852e-016 20   XYZ
    dof rx
    limits (-90.0 20.0)
  end
  begin
     id 6 
     name rhipjoint
     direction -0.57612 -0.754205 0.315056   
     length 2.43216  
     axis 0 0 0  XYZ 
  end
  begin
     id 7 
     name rfemur
     direction -0.34202 -0.939693 0   
     length 7.42799   
     axis 0 0 -20   XYZ
    dof rx ry rz
    limits (-160.0 20.0)
           (-70.0 70.0)
           (-70.0 60.0)
  end
  begin
     id 8 
     name rtibia
     direction -0.34202 -0.939693 0   
     length 7.69484   
     axis 0 0 -20   XYZ
    dof rx
    limits (-10.0 170.0)
 end
 begin
     id 9 
     name rfoot
     direction -0.111837 -0.30727 0.945028   
     length 2.15769  
     axis -90 -7.62852e-016 -20   XYZ
    dof rx rz
    limits (-45.0 90.0)
           (-20.0 70.0)
  end
  begin
     id 10 
     name rtoes
     direction -1.53539e-011 -4.21878e-011 1   
     length 1.07391   
     axis -90 -7.62852e-016 -20   XYZ
    dof rx
    limits (-90.0 20.0)
  end
  begin
     id 11 
     name lowerback
     direction 0.00552624 0.990109 -0.140195   
     length 2.12403   
     axis 0 0 0   XYZ
    dof rx ry rz
    limits (-20.0 45.0)
           (-30.0 30.0)
           (-30.0 30.0)
  end
  begin
     id 12 
     name upperback
     direction 0.00361898 0.999976 -0.00584723   
     length 2.13232   
     axis 0 0 0   XYZ
    dof rx ry rz
    limits (-20.0 45.0)
           (-30.0 30.0)
           (-30.0 30.0)
  end
  begin
     id 13 
     name thorax
     direction -0.000331275 0.998253 0.0590847   
     length 2.17688   
     axis 0 0 0   XYZ
    dof rx ry rz
    limits (-20.0 45.0)
           (-30.0 30.0)
           (-30.0 30.0)
  end
  begin
     id 14 
     name lowerneck
     direction -0.0561561 0.979832 0.19177   
     length 1.64159   
     axis 0 0 0   XYZ
    dof rx ry rz
    limits (-20.0 45.0)
           (-30.0 30.0)
           (-30.0 30.0)
  end
  begin
     id 15 
     name upperneck
     direction 0.0827153 0.979385 -0.184293   
     length 1.68939   
     axis 0 0 0   XYZ
    dof rx ry rz
    limits (-20.0 45.0)
           (-30.0 30.0)
           (-30.0 30.0)
  end
  begin
     id 16
     name head
     direction 0.0278583 0.995936 -0.0856488  
     length 1.70207  
     axis 0 0 0   XYZ
    dof rx ry rz
    limits (-20.0 45.0)
           (-30.0 30.0)
           (-30.0 30.0)
  end
  begin
     id 17 
     name lclavicle
     direction 0.950993 0.301131 -0.0702275  
     length 3.41652  
     axis 0 0 0   XYZ
    dof ry rz
    limits (-20.0 10.0)
           (0.0 20.0)
  end
  begin
     id 18 
     name lhumerus
     direction 1 -4.48981e-011 -3.9662e-029   
     length 5.32955   
     axis 180 -30 -90   XYZ
    dof rx ry rz
    limits (-60.0 90.0)
           (-90.0 90.0)
           (-90.0 90.0)
  end
  begin
     id 19
     name lradius
     direction 1 -4.48925e-011 -9.0549e-027   
     length 3.69232   
     axis 180 -30 -90   XYZ
    dof rx
    limits (-10.0 170.0)
  end
  begin
     id 20
     name lwrist
     direction 1 -4.49007e-011 -1.49005e-026   
     length 1.84616   
     axis 9.0955e-015 90 90   XYZ
    dof ry
    limits (-180.0 0.0)
 end
  begin
     id 21 
     name lhand
     direction 1 -4.49016e-011 -2.98023e-026   
     length 0.536598   
     axis 1.90115e-014 90 90   XYZ
    dof rx rz
    limits (-90.0 90.0)
           (-45.0 45.0)
  end
  begin
     id 22 
     name lfingers
     direction 1 -4.48924e-011 -5.9578e-026   
     length 0.432619   
     axis 3.80223e-014 90 90   XYZ
    dof rx
    limits (0.0 90.0)
  end
  begin
     id 23
     name lthumb
     direction 0.707107 -6.34947e-011 0.707107   
     length 0.621157   
     axis -90 45 -3.84942e-014   XYZ
    dof rx rz
    limits (-45.0 45.0)
           (-45.0 45.0)
  end
  begin
     id 24 
     name rclavicle
     direction -0.955495 0.276497 -0.102848   
     length 3.36357  
     axis 0 0 0   XYZ 
    dof ry rz
    limits (-10.0 20.0)
           (-20.0 0.0)
  end
  begin
     id 25 
     name rhumerus
     direction -1 -4.48961e-011 3.30983e-027  
     length 5.23431   
     axis 180 30 90   XYZ
    dof rx ry rz
    limits (-90.0 60.0)
           (-90.0 90.0)
           (-90.0 90.0)
  end
  begin
     id 26 
     name rradius
     direction -1 -4.48965e-011 -6.63263e-027   
     length 3.55301   
     axis 180 30 90   XYZ
    dof rx
    limits (-10.0 170.0)
  end
  begin
     id 27 
     name rwrist
     direction -1 -4.48942e-011 -1.48958e-026   
     length 1.77651   
     axis 9.0955e-015 -90 -90   XYZ
    dof ry
    limits (-180.0 0.0)
  end
  begin
     id 28
     name rhand
     direction -1 -4.48977e-011 -2.97966e-026   
     length 0.772522   
     axis 1.90115e-014 -90 -90   XYZ
    dof rx rz
    limits (-90.0 90.0)
           (-45.0 45.0)
  end
  begin
     id 29
     name rfingers
     direction -1 -4.49135e-011 -5.96389e-026   
     length 0.622827   
     axis 3.80223e-014 -90 -90   XYZ
    dof rx
    limits (0.0 90.0)
  end
  begin
     id 30
     name rthumb
     direction -0.707107 -6.34969e-011 0.707107   
     length 0.894259   
     axis -90 -45 3.84942e-014   XYZ
    dof rx rz
    limits (-45.0 45.0)
           (-45.0 45.0)
  end
:hierarchy
  begin
    root lhipjoint rhipjoint lowerback
    lhipjoint lfemur
    lfemur ltibia
    ltibia lfoot
    lfoot ltoes
    rhipjoint rfemur
    rfemur rtibia
    rtibia rfoot
    rfoot rtoes
    lowerback upperback
    upperback thorax
    thorax lowerneck lclavicle rclavicle
    lowerneck upperneck
    upperneck head
    lclavicle lhumerus
    lhumerus lradius
    lradius lwrist
    lwrist lhand lthumb
    lhand lfingers
    rclavicle rhumerus
    rhumerus rradius
    rradius rwrist
    rwrist rhand rthumb
    rhand rfingers
  end

#!OML:ASF F:\VICON\USERDATA\INSTALL\rory3\rory3.ASF
:FULLY-SPECIFIED
:DEGREES
33
root 11.7923 17.9663 -14.4108 -1.71512 1.23163 -1.69084
lowerback 12.2155 0.818012 1.69192
upperback 0.951053 1.39334 1.23419
thorax -5.84496 0.656181 0.104355
lowerneck -19.242 -8.29689 -13.5865
upperneck 27.3536 -11.1421 11.5603
head 14.033 -4.82147 4.87275
rclavicle 1.69712e-014 9.54166e-015
rhumerus -31.0573 -13.5733 -81.2349
rradius 30.0307
rwrist 7.5919
rhand -13.6798 6.3299
rfingers 7.12502
rthumb 12.4378 -23.28
lclavicle 1.69712e-014 9.54166e-015
lhumerus -38.0796 7.83987 81.1863
lradius 28.9141
lwrist -6.7966
lhand -19.8004 27.3714
lfingers 7.12502
lthumb 6.53252 57.2507
rfemur -2.86674 -0.391469 29.0209
rtibia 22.8061
rfoot -13.6838 -2.72292
rtoes 9.48955
lfemur -19.3214 -2.71924 -15.2556
ltibia 53.4283
lfoot -4.90427 -2.0002
ltoes -12.4374
34
root 11.7857 17.9465 -14.2908 -1.65217 1.22684 -1.69255
lowerback 12.3006 0.856852 1.84514
upperback 0.852498 1.46501 1.14896
thorax -5.9899 0.684588 -0.0858671
lowerneck -19.2223 -8.32466 -13.6254
upperneck 27.4381 -11.2182 11.6662
head 14.0894 -4.84581 4.91213
rclavicle 1.93815e-015 -8.34896e-015
rhumerus -30.8858 -13.2897 -81.4318
rradius 30.4815
rwrist 7.49967
rhand -13.5543 5.48901
rfingers 7.12502
rthumb 12.5589 -24.1135
lclavicle 1.93815e-015 -8.34896e-015
lhumerus -38.2156 8.58458 80.5857
lradius 28.606
lwrist -8.06128
lhand -19.1461 26.9168
lfingers 7.12502
lthumb 7.16413 56.7755
rfemur -2.49593 -0.414227 29.076
rtibia 22.8416
rfoot -14.1511 -2.82023
rtoes 8.54201
lfemur -20.0597 -2.8447 -15.2302
ltibia 52.3417
lfoot -5.36393 -1.23138
ltoes -12.8166
35
root 11.7779 17.932 -14.174 -1.55478 1.16913 -1.83573
lowerback 12.3852 0.877053 2.06605
upperback 0.752287 1.52816 1.16385
thorax -6.13723 0.707784 -0.207869
lowerneck -19.2011 -8.31439 -13.6571
upperneck 27.4767 -11.1897 11.6388
head 14.0969 -4.84098 4.91388
rclavicle 8.3738e-015 -3.77691e-015
rhumerus -30.6039 -12.7596 -81.651
rradius 30.6729
rwrist 7.17973
rhand -13.5806 5.75613
rfingers 7.12502
rthumb 12.5335 -23.848
lclavicle 8.3738e-015 -3.77691e-015
lhumerus -38.827 7.64366 80.9612
lradius 29.4654
lwrist -7.11335
lhand -18.9946 27.8439
lfingers 7.12502
lthumb 7.31034 57.6976
rfemur -2.08838 -0.245577 29.3014
rtibia 22.7259
rfoot -14.4759 -2.9309
rtoes 8.88001
lfemur -20.8116 -2.83406 -15.0301
ltibia 51.0704
lfoot -5.57152 -0.544132
ltoes -12.1277
36
root 11.7741 17.9227 -14.0452 -1.48777 0.81527 -1.964
lowerback 12.2543 1.01587 2.26164
upperback 0.776871 1.73572 1.18173
thorax -6.02933 0.805704 -0.332078
lowerneck -19.2375 -8.32969 -13.7036
upperneck 27.484 -11.1928 11.6431
head 14.1123 -4.84514 4.9225
rclavicle 8.27441e-015 -1.15295e-014
rhumerus -30.1944 -12.3358 -81.8284
rradius 30.6547
rwrist 7.02237
rhand -14.0748 6.90314
rfingers 7.12502
rthumb 12.057 -22.7295
lclavicle 8.27441e-015 -1.15295e-014
lhumerus -38.6822 8.59223 80.587
lradius 28.9223
lwrist -7.96236
lhand -19.1607 28.1982
lfingers 7.12502
lthumb 7.15005 58.0574
rfemur -1.57927 -0.0326704 29.4715
rtibia 22.5182
rfoot -14.7379 -2.82107
rtoes 8.99386
lfemur -21.3599 -2.64393 -14.8708
ltibia 49.6215
lfoot -5.63422 0.174144
ltoes -11.7243
37
root 11.7763 17.9205 -13.8985 -1.39973 0.149935 -1.9731
lowerback 11.9506 1.26235 2.40358
upperback 0.797062 2.06897 1.14607
thorax -5.82497 0.96767 -0.497828
lowerneck -19.2239 -8.35362 -13.7727
upperneck 27.4702 -11.2085 11.6554
head 14.1122 -4.85807 4.93581
rclavicle 2.98177e-015 5.76476e-015
rhumerus -29.9695 -11.9058 -82.0157
rradius 30.7731
rwrist 6.60396
rhand -14.4937 7.87757
rfingers 7.12502
rthumb 11.653 -21.7784
lclavicle 2.98177e-015 5.76476e-015
lhumerus -38.924 8.71469 80.5288
lradius 28.9714
lwrist -8.12426
lhand -19.2272 28.8325
lfingers 7.12502
lthumb 7.08582 58.6938
rfemur -0.983355 0.298604 29.4631
rtibia 22.2059
rfoot -14.9634 -2.53657
rtoes 8.73858
lfemur -21.6627 -2.40025 -14.8688
ltibia 48.0007
lfoot -5.88491 1.0548
ltoes -12.9097
38
root 11.7752 17.921 -13.7608 -1.25385 -0.297341 -1.99205
lowerback 11.8152 1.42209 2.54963
upperback 0.719004 2.29501 1.10187
thorax -5.81874 1.07383 -0.66074
lowerneck -19.0836 -8.34126 -13.7137
upperneck 27.3688 -11.1766 11.5333
head 14.0186 -4.85842 4.87977
rclavicle 1.08835e-014 4.96962e-015
rhumerus -29.8968 -11.2881 -82.2611
rradius 31.2154
rwrist 6.07487
rhand -14.5559 8.20985
rfingers 7.12502
rthumb 11.5931 -21.4495
lclavicle 1.08835e-014 4.96962e-015
lhumerus -39.1642 8.72583 80.413
lradius 28.9168
lwrist -8.34905
lhand -19.2122 28.4583
lfingers 7.12502
lthumb 7.10029 58.3192
rfemur -0.437051 0.535543 29.4838
rtibia 21.8284
rfoot -15.101 -2.33964
rtoes 8.67915
lfemur -22.029 -2.40761 -14.821
ltibia 46.2448
lfoot -6.06876 1.88635
ltoes -13.6551
39
root 11.7694 17.9131 -13.637 -1.14217 -0.460737 -2.08297
lowerback 11.7863 1.50614 2.7102
upperback 0.673801 2.42737 1.09067
thorax -5.83959 1.13375 -0.784083
lowerneck -18.9549 -8.33822 -13.6545
upperneck 27.231 -11.1753 11.479
head 13.9229 -4.86302 4.84452
rclavicle -9.54166e-015 -1.03368e-014
rhumerus -29.6854 -10.8747 -82.4445
rradius 31.6509
rwrist 5.81153
rhand -14.6594 7.98718
rfingers 7.12502
rthumb 11.4933 -21.6777
lclavicle -9.54166e-015 -1.03368e-014
lhumerus -39.245 8.8856 80.2582
lradius 28.7881
lwrist -8.47103
lhand -19.1276 27.5948
lfingers 7.12502
lthumb 7.18197 57.453
rfemur 0.102213 0.601579 29.6213
rtibia 21.4399
rfoot -15.2219 -2.34303
rtoes 8.14737
lfemur -22.4254 -2.54457 -14.663
ltibia 44.3693
lfoot -6.02728 2.4878
ltoes -13.1059
